<svg xmlns="http://www.w3.org/2000/svg" width="18" height="18" viewBox="0 0 18 18"><g><g opacity=".6"><path fill="#78849e" d="M13.952 5.916A9.2 9.2 0 0 1 11.9 3.878a1.862 1.862 0 0 1 1.172-1.194 9 9 0 0 1 2.05 2.048c-.21.589-.597.975-1.17 1.184zm1.612-1.489a9.516 9.516 0 0 0-2.179-2.178.516.516 0 0 0-.473-.069c-.747.263-1.258.774-1.519 1.52a.511.511 0 0 0 .068.474 9.53 9.53 0 0 0 2.178 2.178.519.519 0 0 0 .473.068c.748-.26 1.259-.772 1.521-1.52a.511.511 0 0 0-.069-.473zM12.44 9.672a4.256 4.256 0 0 1-2.171-.608l-.185.184-1.628 1.628a1.074 1.074 0 0 0-.315.76v1.26H7.066c-.594 0-1.075.48-1.075 1.074v1.075H4.732c-.284 0-.558.113-.76.315l-.761.762-1.519-.002-.001-1.532 6.268-6.256.79-.789a4.254 4.254 0 0 1-.609-2.17 4.3 4.3 0 1 1 4.3 4.299zm0-9.672a5.373 5.373 0 0 0-5.373 5.373c0 .69.145 1.344.383 1.95L.921 13.851c-.188.189-.305.368-.305.657v1.612c0 .575.5 1.074 1.075 1.074h1.612c.288 0 .47-.115.658-.303l.771-.771h1.26c.593 0 1.074-.482 1.074-1.075V13.97h1.075c.593 0 1.074-.481 1.074-1.074v-1.26l1.273-1.274c.607.24 1.26.384 1.951.384A5.374 5.374 0 0 0 12.44 0z"/></g></g></svg>