<svg xmlns="http://www.w3.org/2000/svg" width="18" height="17" viewBox="0 0 18 17"><g><g opacity=".5"><path fill="#78849E" d="M9.327 14.318c-.122.082-.245.164-.327.287-.123-.082-.205-.164-.327-.246-.573-.45-1.187-.9-1.718-1.35-.246-.245-.491-.45-.737-.654-.204-.164-.368-.328-.532-.491-.081-.082-1.309-1.187-1.677-1.555C2.455 8.714 1.636 7.364 1.636 5.85c0-2.536 1.637-4.214 3.682-4.214.9 0 1.637.369 2.21.941.204.205.367.41.531.655.082.164.164.245.164.286.327.655 1.227.655 1.513 0 .041-.04.082-.163.164-.286.123-.205.327-.45.532-.655.613-.572 1.35-.94 2.25-.94 2.045 0 3.682 1.677 3.682 4.213 0 1.514-.819 2.864-2.373 4.418-.368.368-1.596 1.473-1.677 1.555a6.293 6.293 0 0 1-.532.49 5.95 5.95 0 0 1-.737.655c-.531.45-1.145.9-1.718 1.35zm-.04-12.886c-.123.082-.205.204-.287.286-.082-.082-.164-.204-.286-.286C7.854.532 6.709 0 5.318 0 2.332 0 0 2.414 0 5.85c0 2.046.982 3.764 2.864 5.605.409.409 1.636 1.513 1.718 1.554.204.164.368.368.573.532.245.205.49.41.777.655.573.45 1.186.94 1.8 1.39.204.164.409.328.573.45.122.082.204.123.245.164a.798.798 0 0 0 .94 0c.042-.04.124-.082.246-.164.164-.163.369-.286.573-.45.614-.45 1.227-.9 1.8-1.39.246-.205.532-.45.777-.655.205-.205.41-.368.573-.532.041-.04 1.268-1.145 1.677-1.554C16.977 9.614 18 7.895 18 5.85 18 2.414 15.668 0 12.682 0c-1.391 0-2.537.532-3.396 1.432z"/></g></g></svg>