<svg xmlns="http://www.w3.org/2000/svg" width="13" height="15" viewBox="0 0 13 15"><g><g><path fill="#78849e" d="M9.98 13.224h-.945V6.612h.945zm-1.89 0h-.944V6.612h.945zm-1.888 0h-.945V6.612h.945zm-1.89 0h-.944V6.612h.944zm-2.833-8.5v9.445c0 .52.425.944.944.944h8.501c.52 0 .945-.425.945-.944V4.723z"/></g><g><path fill="#78849e" d="M8.09 1.89H5.258V.957h2.834zm.945 0V.709A.71.71 0 0 0 8.327 0H5.02a.71.71 0 0 0-.709.709v1.18h-3.07a.71.71 0 0 0-.708.709v1.18h12.28v-1.18a.71.71 0 0 0-.709-.708z"/></g></g></svg>