<svg xmlns="http://www.w3.org/2000/svg" width="14.466" height="17.804" viewBox="0 0 14.466 17.804">
  <g id="Group_1335" data-name="Group 1335" transform="translate(-136.534 -278)">
    <g id="bin" transform="translate(134.534 278)">
      <path id="Path_950" data-name="Path 950" d="M4,10V21.128A1.116,1.116,0,0,0,5.113,22.24H15.128a1.116,1.116,0,0,0,1.113-1.113V10ZM7.338,20.015H6.226V12.226H7.338Zm2.226,0H8.451V12.226H9.564Zm2.226,0H10.677V12.226h1.113Zm2.226,0H12.9V12.226h1.113Z" transform="translate(-0.887 -4.436)" fill="#000"/>
      <path id="Path_951" data-name="Path 951" d="M15.631,2.226H12.015V.835A.837.837,0,0,0,11.18,0H7.286a.837.837,0,0,0-.835.835V2.226H2.835A.837.837,0,0,0,2,3.06V4.451H16.466V3.06A.837.837,0,0,0,15.631,2.226Zm-4.729,0H7.564v-1.1H10.9Z" fill="#000"/>
    </g>
  </g>
</svg>
