<svg id="Component_2_1" data-name="Component 2 – 1" xmlns="http://www.w3.org/2000/svg" width="24" height="24" viewBox="0 0 24 24">
  <circle id="Icon" cx="12" cy="12" r="12" fill="#505050" opacity="0"/>
  <path id="cog2" d="M14.6,8.778h.968v1.507H14.6a5.5,5.5,0,0,1-.369,1.375l.839.484-.754,1.305-.853-.492a5.543,5.543,0,0,1-1.01.984l.5.87-1.305.754-.513-.888a5.477,5.477,0,0,1-1.347.338v1.048H8.278V14.987a5.5,5.5,0,0,1-1.313-.367l-.546.946-1.305-.754.559-.969a5.555,5.555,0,0,1-.936-.961l-.985.569L3,12.145l.994-.574a5.526,5.526,0,0,1-.336-1.286H2.5V8.778H3.657a5.513,5.513,0,0,1,.336-1.286L3,6.918l.754-1.305.985.569a5.575,5.575,0,0,1,.936-.962l-.559-.967L6.419,3.5l.546.946a5.476,5.476,0,0,1,1.313-.367V3H9.786V4.048a5.477,5.477,0,0,1,1.347.338l.513-.888,1.305.754-.5.87a5.543,5.543,0,0,1,1.01.984l.853-.492.754,1.305-.839.484A5.515,5.515,0,0,1,14.6,8.778ZM9.027,6.261a3.266,3.266,0,1,0,3.266,3.266A3.266,3.266,0,0,0,9.027,6.261Zm0,4.527a1.256,1.256,0,1,1,1.256-1.256A1.256,1.256,0,0,1,9.032,10.788Z" transform="translate(2.5 2)" fill="#fff"/>
</svg>
