<svg id="Component_3_1" data-name="Component 3 – 1" xmlns="http://www.w3.org/2000/svg" width="24" height="24" viewBox="0 0 24 24">
  <circle id="Icon" cx="12" cy="12" r="12" fill="#505050" opacity="0"/>
  <path id="hand" d="M15.026,17.047l1.955-2.632,2.3-2.193a2.625,2.625,0,0,0-1.711-.912,2.026,2.026,0,0,0-1.169.365,3.419,3.419,0,0,0-.967,1.093,6.027,6.027,0,0,0-.95.406,6.738,6.738,0,0,0-.182-1.123l1.319-5.119C15.929,5.7,16,5.074,15.26,4.744s-1.5.581-1.894,1.742l-1.251,3.953.038-5.083q0-1.872-1.181-1.872T9.779,5.142v5.082L8.5,5.772c-.317-.787-.875-1.563-1.619-1.315s-.708,1.471-.5,2.253l1.14,4.34L5.681,8.015C5.119,7.04,4.149,6.852,3.93,7.079c-.349.363-.583,1.134.051,2.242l2.028,3.53,1.81,6.271v1.219H13.1V18.769a18.519,18.519,0,0,0,1.922-1.722Z" transform="translate(0.417 -0.059)" fill="#fff"/>
</svg>
