<svg xmlns="http://www.w3.org/2000/svg" width="60" height="60" viewBox="0 0 60 60"><g transform="translate(15 -237)"><g transform="translate(-15 237)" opacity="0"><circle cx="30" cy="30" r="30" fill="#6b6b6b"/></g><path d="M18.292,1.928A15.722,15.722,0,1,0,34.014,17.65,15.722,15.722,0,0,0,18.292,1.928Zm0,29.478a13.71,13.71,0,0,1-5.442-1.119l7.159-8.054a.983.983,0,0,0,.248-.653V18.632a.983.983,0,0,0-.983-.983c-3.469,0-7.13-3.607-7.166-3.643a.982.982,0,0,0-.695-.288H7.484A.983.983,0,0,0,6.5,14.7v5.9a.983.983,0,0,0,.543.879l3.387,1.694v5.769A13.765,13.765,0,0,1,5.86,11.754H9.449a.983.983,0,0,0,.695-.288l3.93-3.93a.983.983,0,0,0,.288-.695V4.464a13.795,13.795,0,0,1,9.957.817c-.127.108-.251.22-.37.339a5.9,5.9,0,0,0,4.165,10.065q.146,0,.292-.007a23.074,23.074,0,0,1-.258,11.433.98.98,0,0,0-.026.16,13.714,13.714,0,0,1-9.83,4.135Z" transform="translate(-3.571 248.949)" fill="#fff"/></g></svg>