<svg xmlns="http://www.w3.org/2000/svg" width="60" height="60" viewBox="0 0 60 60"><g transform="translate(15 -237)"><g transform="translate(-15 237)" opacity="0"><circle cx="30" cy="30" r="30" fill="#6b6b6b"/></g><path d="M16.371,23.24c.161-.824-.8-2.01-2.172-3.264a22.664,22.664,0,0,0-4.25-3.123,1.981,1.981,0,0,0-3.1,1.521,6.631,6.631,0,0,0,.972,4.952,3.6,3.6,0,0,0,2.91,1.608,22.208,22.208,0,0,0,4.136-.067A2.111,2.111,0,0,0,16.371,23.24Zm13.743,1.394a.35.35,0,0,0-.556.161c-.536,1.7-3,7.539-11.538,8.142-10.036.7,5.383,2.922,9.748-.429,1.522-1.166,3.191-2.346,3.124-5.723a3.547,3.547,0,0,0-.778-2.151Zm4.156-8.2A3.013,3.013,0,0,0,32.528,13.6a.585.585,0,0,1-.4-.429A14.918,14.918,0,0,0,29.424,6.9c-.074-.1-.235-.214-.147-.335.57-.771-.02-1.206-.469-1.635A16.023,16.023,0,0,0,11.893.877,14.883,14.883,0,0,0,5.055,5.394c-.268.288-.449.61-.2.972.2.268.087.415-.067.623a15.171,15.171,0,0,0-2.635,6.146.653.653,0,0,1-.429.523A2.911,2.911,0,0,0,.054,15.936L0,17.711v1.4A3.109,3.109,0,0,0,3.473,22.4a.738.738,0,0,0,.8-.771c.134-5.194-.161-6.393.248-8.431A12.91,12.91,0,0,1,23.149,4.382a12.576,12.576,0,0,1,6.858,11.352c.054,1.89,0,3.786,0,5.669,0,.469.147.838.63.952A3.054,3.054,0,0,0,34.2,19.9a20.616,20.616,0,0,0,.067-3.465Zm-10.7,8.813a3.735,3.735,0,0,0,3.915-4.054c-.141-3.029-4.438-1.106-5.886-.536-4.907,1.883-3.017,3.679-1.488,4.075Z" transform="translate(-2.645 249.995)" fill="#fff"/></g></svg>