<svg xmlns="http://www.w3.org/2000/svg" width="60" height="60" viewBox="0 0 60 60"><g transform="translate(15 -237)"><g transform="translate(-15 237)" opacity="0"><circle cx="30" cy="30" r="30" fill="#6b6b6b"/></g><g transform="translate(-4 248)"><path d="M27.651,32.307V29.038A6.538,6.538,0,0,0,21.113,22.5H8.038A6.538,6.538,0,0,0,1.5,29.038v3.269" transform="translate(0 1.613)" fill="none" stroke="#fff" strokeLinecap="round" strokeLinejoin="round" strokeWidth="2"/><path d="M20.576,11.038A6.538,6.538,0,1,1,14.038,4.5,6.538,6.538,0,0,1,20.576,11.038Z" transform="translate(0.538)" fill="none" stroke="#fff" strokeLinecap="round" strokeLinejoin="round" strokeWidth="2"/><path d="M34.9,32.289V29.02A6.538,6.538,0,0,0,30,22.7" transform="translate(2.555 1.631)" fill="none" stroke="#fff" strokeLinecap="round" strokeLinejoin="round" strokeWidth="2"/><path d="M24,4.7a6.538,6.538,0,0,1,0,12.667" transform="translate(2.017 0.017)" fill="none" stroke="#fff" strokeLinecap="round" strokeLinejoin="round" strokeWidth="2"/></g></g></svg>