<svg xmlns="http://www.w3.org/2000/svg" width="18" height="17" viewBox="0 0 18 17"><g><g opacity=".6"><path fill="#78849e" d="M10.478 8.786c0 1.19-.863 1.62-1.539 1.62-.963 0-1.599-.8-1.599-2.235 0-1.805.84-2.419 1.599-2.419.697 0 1.539.473 1.539 1.6zm2.52 1.271h-.001V4.03h-1.723l-.595 1.087c-.347-.78-1.126-1.271-2.376-1.271-2.358 0-3.67 1.722-3.67 4.51 0 2.767 1.496 4.141 3.28 4.141 1.333 0 2.317-.431 2.686-1.846.123 1.272 1.065 1.846 2.501 1.846 3.158 0 4.161-2.44 4.161-5.638 0-3.772-2.726-6.847-7.871-6.847C4.449.01.86 3.373.86 8.314c0 4.9 3.097 8.078 8.878 8.078 1.25 0 2.87-.143 4.388-.636l-.33-1.372c-1.536.512-2.541.676-4.038.676-4.407 0-7.278-2.378-7.278-6.745 0-4.572 3.281-6.99 6.889-6.99 3.506 0 6.315 1.844 6.315 5.698 0 2.522-.757 4.038-1.948 4.038-.533 0-.737-.286-.737-1.004z"/></g></g></svg>