<svg xmlns="http://www.w3.org/2000/svg" width="23.545" height="14.716" viewBox="0 0 23.545 14.716">
  <path id="eye" d="M11.773,6A13.185,13.185,0,0,0,0,13.358a13.1,13.1,0,0,0,23.545,0A13.185,13.185,0,0,0,11.773,6Zm5.8,3.9a11.193,11.193,0,0,1,3.436,3.456,11.2,11.2,0,0,1-3.436,3.456,10.789,10.789,0,0,1-11.609,0,11.193,11.193,0,0,1-3.436-3.456A11.2,11.2,0,0,1,5.968,9.9c.09-.057.181-.113.273-.168a5.886,5.886,0,1,0,11.063,0c.091.054.182.11.273.168Zm-5.8,1.249A2.207,2.207,0,1,1,9.565,8.943,2.207,2.207,0,0,1,11.773,11.151Z" transform="translate(0 -6)" fill="#78849e"/>
</svg>
