<svg xmlns="http://www.w3.org/2000/svg" width="17" height="17" viewBox="0 0 17 17"><g><g opacity=".6"><path fill="#78849e" d="M11.425 10.164a3.62 3.62 0 0 1-3.107 1.758 3.62 3.62 0 0 1-3.106-1.758l-1.332.799a5.172 5.172 0 0 0 4.438 2.512 5.173 5.173 0 0 0 4.438-2.512l-1.331-.8zm-.002-3.934a1.035 1.035 0 1 0 0-2.07 1.035 1.035 0 0 0 0 2.07zm-6.21 0a1.035 1.035 0 1 0 0-2.07 1.035 1.035 0 0 0 0 2.07zm3.105-4.657a6.727 6.727 0 1 1 0 13.454 6.727 6.727 0 0 1 0-13.454zm0 15.006a8.28 8.28 0 0 0 8.28-8.28A8.28 8.28 0 0 0 8.318.02 8.28 8.28 0 0 0 .038 8.3a8.28 8.28 0 0 0 8.28 8.28z"/></g></g></svg>