<svg xmlns="http://www.w3.org/2000/svg" width="18" height="18" viewBox="0 0 18 18"><g><g opacity=".6"><path fill="#78849e" d="M6 3.092V1.87a1.166 1.166 0 1 0-2.334 0v1.222a1.166 1.166 0 1 0 2.334 0zm8.297 0V1.87a1.166 1.166 0 1 0-2.334 0v1.222a1.166 1.166 0 1 0 2.334 0zm-3.023 10.155c-.157.12-.375.18-.654.18-.445 0-.834-.122-1.167-.365v.955c.322.166.74.25 1.253.25.6 0 1.07-.136 1.41-.407.34-.27.51-.639.51-1.104 0-.307-.102-.568-.305-.78-.204-.21-.482-.339-.834-.383v-.017c.66-.164.99-.571.99-1.222 0-.365-.142-.663-.426-.892-.283-.23-.68-.344-1.189-.344-.465 0-.872.088-1.222.264v.896c.315-.215.64-.323.973-.323.497 0 .746.202.746.607 0 .431-.324.646-.972.646h-.413v.84h.448c.338 0 .604.061.797.181.193.12.29.292.29.514a.599.599 0 0 1-.235.504zm-4.011-1.978c-.117.187-.319.417-.606.692L5.23 13.326v.854h3.278v-.91h-2.02v-.02l1.024-.91c.697-.62 1.045-1.221 1.045-1.802 0-.435-.143-.781-.429-1.037-.286-.255-.684-.383-1.193-.383-.544 0-1.033.14-1.465.42v.966c.39-.34.8-.51 1.229-.51.493 0 .74.229.74.687 0 .205-.06.402-.176.588zm8.849 4.843H1.888V6.629h14.224zm1.185 0V3.666c0-.654-.531-1.185-1.185-1.185h-1.186v.593a1.778 1.778 0 0 1-3.555 0V2.48H6.629v.593a1.778 1.778 0 1 1-3.555 0V2.48H1.888c-.654 0-1.185.531-1.185 1.185v12.446c0 .654.531 1.185 1.185 1.185h14.224c.654 0 1.185-.531 1.185-1.185z"/></g></g></svg>