<svg xmlns="http://www.w3.org/2000/svg" width="19" height="20" viewBox="0 0 19 20"><g><g opacity=".6"><path fill="#78849e" d="M14.892 13.267c2.172 0 3.493-1.83 3.493-3.735 0 .004-6.986.004-6.986 0 0 1.904 1.37 3.735 3.493 3.735zM0 9.532c0 1.904 1.37 3.735 3.493 3.735 2.171 0 3.492-1.83 3.492-3.735 0 .003-6.984.003-6.985 0zm14.795-6.644l2.668 5.922h.776l-2.91-6.444V1.74h-4.864c0-.912-.598-1.738-1.39-1.738-.748 0-1.389.781-1.389 1.738H2.91v.731L.048 8.81h.776l2.668-5.922L6.16 8.81h.776L4.09 2.506h4.254v14.686c-.712 0-5.434 1.485-5.434 1.485v.77h12.417v-.722s-4.62-1.499-5.525-1.532V2.506h4.394L11.35 8.81h.777z"/></g></g></svg>